<?xml version="1.0" standalone="no"?><!DOCTYPE svg PUBLIC "-//W3C//DTD SVG 1.1//EN" "http://www.w3.org/Graphics/SVG/1.1/DTD/svg11.dtd"><svg class="icon" width="512px" height="512.00px" viewBox="0 0 1024 1024" version="1.1" xmlns="http://www.w3.org/2000/svg"><path d="M512 0L68.266667 235.178667V273.066667h887.466666v-37.888L512 0zM136.533333 341.333333v341.333334l-68.266666 106.154666V887.466667h887.466666v-98.645334L887.466667 682.666667V341.333333H136.533333z m178.517334 68.266667a42.666667 42.666667 0 0 1 30.788266 12.561067L512 588.253867l166.161067-166.0928A42.666667 42.666667 0 0 1 750.933333 452.266667v289.5872a42.666667 42.666667 0 1 1-85.333333 0V555.2128L542.1056 678.570667a42.666667 42.666667 0 0 1-60.2112 0L358.4 555.2128v186.641067a42.666667 42.666667 0 1 1-85.333333 0V452.266667c0-23.278933 18.705067-42.325333 41.984-42.666667z" fill="#e6e6e6" /></svg>